<?xml version="1.0" encoding="UTF-8" standalone="no"?>
<!DOCTYPE svg PUBLIC "-//W3C//DTD SVG 1.1//EN"
"http://www.w3.org/Graphics/SVG/1.1/DTD/svg11.dtd">
<!-- Creator: dpic version 2018.02.01 option -v for SVG 1.1 -->
<!-- width="458" height="72" -->
<svg
 xmlns="http://www.w3.org/2000/svg" xmlns:xlink="http://www.w3.org/1999/xlink"
 xml:space="preserve"
 style="shape-rendering:geometricPrecision; text-rendering:geometricPrecision;
 image-rendering:optimizeQuality; fill-rule:evenodd; clip-rule:evenodd"
 width="456.6px" height="70.68px"
 viewBox="0 0 456.6 70.68"
 font-size="11pt" text-anchor="middle"
 stroke="black" stroke-miterlimit="10" stroke-width="1" fill="none">
<g>
<text stroke-width="0.2pt" fill="black" x="32.785714" y="27.8125">
 setting
</text>
<polygon stroke-width="0" fill="black"
 points="104.5,20.75 113.5,23
104.5,25.25" />
<line x1="68.5" y1="23" x2="111.438447" y2="23" />
<rect x="113.5" y="0.5" width="67.5" height="45" />
<text stroke-width="0.2pt" fill="black" x="145.285714" y="27.8125">
 control
</text>
<polygon stroke-width="0" fill="black"
 points="217,20.75 226,23
217,25.25" />
<line x1="181" y1="23" x2="223.938447" y2="23" />
<rect x="226" y="0.5" width="67.5" height="45" />
<text stroke-width="0.2pt" fill="black" x="257.785714" y="27.8125">
 system
</text>
<line x1="293.5" y1="23" x2="338.5" y2="23" />
<circle fill="gray"
 cx="340.3" cy="23" r="1.8" />
<polygon stroke-width="0" fill="black"
 points="378.1,20.75 387.1,23
378.1,25.25" />
<line x1="342.1" y1="23" x2="385.038447" y2="23" />
<text stroke-width="0.2pt" fill="black" x="418.885714" y="20.9375">
 desired
</text>
<text stroke-width="0.2pt" fill="black" x="418.885714" y="34.6875">
 temperature
</text>
<line x1="340.3" y1="23" x2="340.3" y2="68" />
<circle cx="340.3" cy="68.09" r="0.09" />
<line x1="340.3" y1="68.18" x2="147.25" y2="68.09" />
<polygon stroke-width="0" fill="black"
 points="145,54.5 147.25,45.5
149.5,54.5" />
<line x1="147.25" y1="68.09" x2="147.25" y2="47.561553" />
</g></svg>
